<?xml version="1.0" encoding="UTF-8"?>
<svg id="Layer_1" xmlns="http://www.w3.org/2000/svg" version="1.1" viewBox="0 0 396.56 164.39">
  <!-- Generator: Adobe Illustrator 29.8.6, SVG Export Plug-In . SVG Version: 2.1.1 Build 1)  -->
  <defs>
    <style>
      .st0 {
        fill: #262626;
      }

      .st1 {
        fill: #279989;
      }
    </style>
  </defs>
  <g id="Aperia">
    <g>
      <path class="st1" d="M250.14,102.04l6.01,3.21c-1.97,3.94-4.25,7.12-6.83,9.54-2.58,2.42-5.49,4.26-8.72,5.52-3.23,1.26-6.88,1.89-10.96,1.89-9.04,0-16.11-3.01-21.2-9.04-5.1-6.03-7.65-12.84-7.65-20.44,0-7.15,2.16-13.53,6.47-19.12,5.47-7.12,12.79-10.68,21.97-10.68s16.99,3.65,22.63,10.94c4.01,5.15,6.05,11.57,6.12,19.28h-49.86c.13,6.55,2.19,11.92,6.17,16.11,3.98,4.19,8.89,6.28,14.74,6.28,2.82,0,5.57-.5,8.23-1.5,2.67-1,4.94-2.32,6.81-3.97,1.87-1.65,3.89-4.32,6.07-8ZM250.14,86.86c-.95-3.87-2.34-6.96-4.16-9.28-1.82-2.31-4.22-4.18-7.22-5.6-2.99-1.42-6.14-2.12-9.43-2.12-5.44,0-10.12,1.78-14.02,5.34-2.86,2.59-5.01,6.48-6.48,11.66h41.3Z"/>
      <path class="st1" d="M313.46,41.15c1.62,0,3.01.59,4.16,1.76,1.15,1.17,1.72,2.59,1.72,4.25s-.58,3.02-1.72,4.2c-1.15,1.17-2.54,1.76-4.16,1.76s-2.96-.59-4.11-1.76c-1.15-1.17-1.72-2.57-1.72-4.2s.57-3.08,1.72-4.25c1.15-1.17,2.52-1.76,4.11-1.76Z"/>
      <rect class="st1" x="309.93" y="64.37" width="7.13" height="56.38"/>
      <path class="st1" d="M119.71,65.55c.8-1.17,1.55-2.43,2.04-3.89.24-.73.43-1.5.46-2.34,0-.42,0-.84-.08-1.26-.03-.2-.08-.44-.15-.67-.07-.25-.12-.34-.18-.51l-.02-.06c-.68-1.64-2.06-2.69-3.37-3.3-1.34-.63-2.71-.94-4.07-1.16-2.72-.4-5.41-.36-8.07-.18-5.17.36-10.25,1.29-15.25,2.45l-20.42-44.55h-2.76l-29.79,64.51c-2.08,1.1-4.14,2.23-6.17,3.42-4.59,2.65-9.08,5.54-13.24,8.94-2.08,1.71-4.09,3.54-5.83,5.73-.86,1.11-1.67,2.29-2.24,3.71-.57,1.38-.9,3.15-.28,4.88.3.84.81,1.6,1.41,2.2.6.6,1.27,1.05,1.94,1.42,1.36.74,2.76,1.14,4.14,1.45,1.77.38,3.54.58,5.29.69l-2.34,5.07-3.97,7.9h12.08l6.2-13.29c2.39-.23,4.76-.52,7.12-.89,10.64-1.65,21.01-4.63,30.97-8.6,7.18-2.88,14.15-6.31,20.82-10.31l15.3,33.08h11.74l-17.91-39.07c3.89-2.78,7.66-5.76,11.15-9.11,1.98-1.89,3.86-3.93,5.48-6.26ZM69.22,33.43l11.11,24.01c-1.66.49-3.32,1-4.96,1.53-5.03,1.6-9.99,3.39-14.89,5.35-2.35.93-4.69,1.89-7.01,2.9l15.76-33.79ZM18.36,103.02c-1.2-.17-2.38-.44-3.38-.89-1.01-.45-1.79-1.08-2.15-1.88-.35-.8-.3-1.86.08-2.96.37-1.09,1-2.18,1.71-3.21,1.46-2.07,3.28-3.95,5.2-5.71,3.87-3.51,8.19-6.57,12.61-9.41,1.64-1.02,3.3-2,4.97-2.96l-12.51,27.09c-2.21.17-4.42.22-6.54-.05ZM70.23,89.69c-9.63,3.81-19.36,7.39-29.3,10.23-1.04.29-2.08.56-3.12.83l15.26-32.72c2.5-1.12,5.03-2.2,7.57-3.23,4.9-1.94,9.85-3.72,14.87-5.29,1.68-.52,3.38-1,5.07-1.47l10.5,22.71c-6.85,3.22-13.84,6.14-20.87,8.95ZM100.77,75.89l-9.36-20.43c4.95-.93,9.95-1.64,14.94-1.74,2.59-.03,5.2.09,7.66.6,1.22.26,2.43.62,3.45,1.18,1.02.54,1.8,1.3,2.1,2.18.62,1.92-.7,4.16-2.21,6.05-1.58,1.92-3.53,3.6-5.54,5.18-3.45,2.63-7.2,4.89-11.03,6.98Z"/>
      <g>
        <path class="st0" d="M165.45,138.08v-1.51h8.33v1.51h-3.39v13.95h-1.55v-13.95h-3.39Z"/>
        <path class="st0" d="M181.79,136.57h8.71v1.51h-7.19v4.85h7.13v1.51h-7.13v6.08h7.13v1.51h-8.65v-15.46Z"/>
        <path class="st0" d="M213.1,139.44l-1.2.94c-.66-.88-1.46-1.54-2.38-1.99-.93-.45-1.94-.68-3.05-.68-1.21,0-2.34.3-3.37.89-1.03.59-1.83,1.39-2.4,2.39-.57,1-.85,2.12-.85,3.37,0,1.89.64,3.46,1.91,4.72,1.27,1.26,2.87,1.89,4.81,1.89,2.13,0,3.91-.85,5.34-2.54l1.2.93c-.76.98-1.7,1.74-2.84,2.28-1.13.54-2.4.8-3.8.8-2.66,0-4.76-.9-6.29-2.7-1.29-1.52-1.93-3.36-1.93-5.51,0-2.26.78-4.17,2.34-5.71,1.56-1.54,3.51-2.32,5.86-2.32,1.42,0,2.7.29,3.84.86,1.14.57,2.08,1.37,2.81,2.4Z"/>
        <path class="st0" d="M221.95,136.57h1.52v6.49h7.74v-6.49h1.52v15.46h-1.52v-7.46h-7.74v7.46h-1.52v-15.46Z"/>
        <path class="st0" d="M242.25,152.03v-15.46h.33l10.11,11.85v-11.85h1.5v15.46h-.34l-10.03-11.71v11.71h-1.57Z"/>
        <path class="st0" d="M270.95,136.18c2.3,0,4.23.78,5.78,2.34,1.55,1.56,2.33,3.49,2.33,5.77s-.77,4.18-2.32,5.76c-1.55,1.58-3.43,2.36-5.66,2.36s-4.16-.78-5.71-2.35c-1.55-1.57-2.33-3.47-2.33-5.7,0-1.49.35-2.86,1.06-4.13.71-1.27,1.67-2.26,2.89-2.98,1.22-.72,2.54-1.08,3.96-1.08ZM271.02,137.68c-1.12,0-2.19.3-3.2.89-1.01.6-1.79,1.4-2.36,2.41-.57,1.01-.85,2.14-.85,3.38,0,1.84.63,3.39,1.88,4.66,1.25,1.27,2.76,1.9,4.53,1.9,1.18,0,2.27-.29,3.28-.87,1-.58,1.79-1.38,2.35-2.39.56-1.01.84-2.13.84-3.37s-.28-2.34-.84-3.33c-.56-.99-1.35-1.79-2.38-2.38-1.02-.6-2.1-.89-3.25-.89Z"/>
        <path class="st0" d="M287.92,136.57h1.52v13.97h5.85v1.49h-7.37v-15.46Z"/>
        <path class="st0" d="M310.75,136.18c2.3,0,4.23.78,5.78,2.34,1.55,1.56,2.33,3.49,2.33,5.77s-.77,4.18-2.32,5.76c-1.55,1.58-3.43,2.36-5.66,2.36s-4.16-.78-5.71-2.35c-1.55-1.57-2.33-3.47-2.33-5.7,0-1.49.35-2.86,1.06-4.13.71-1.27,1.67-2.26,2.89-2.98,1.22-.72,2.54-1.08,3.96-1.08ZM310.82,137.68c-1.13,0-2.19.3-3.2.89-1.01.6-1.79,1.4-2.36,2.41-.57,1.01-.85,2.14-.85,3.38,0,1.84.63,3.39,1.88,4.66,1.25,1.27,2.76,1.9,4.53,1.9,1.18,0,2.27-.29,3.27-.87,1-.58,1.79-1.38,2.35-2.39.56-1.01.84-2.13.84-3.37s-.28-2.34-.84-3.33c-.56-.99-1.35-1.79-2.38-2.38-1.02-.6-2.1-.89-3.25-.89Z"/>
        <path class="st0" d="M342.38,139.16l-1.18,1.14c-.85-.85-1.78-1.49-2.78-1.93-1.01-.44-1.99-.66-2.95-.66-1.19,0-2.33.3-3.4.89-1.08.6-1.91,1.4-2.51,2.42-.59,1.02-.89,2.1-.89,3.23s.31,2.27.92,3.32c.61,1.05,1.46,1.87,2.54,2.47,1.08.6,2.27.9,3.55.9,1.56,0,2.89-.45,3.97-1.35,1.08-.9,1.72-2.06,1.92-3.49h-4.85v-1.49h6.55c-.01,2.39-.71,4.29-2.09,5.69-1.38,1.4-3.23,2.11-5.54,2.11-2.81,0-5.04-.97-6.67-2.92-1.26-1.5-1.89-3.23-1.89-5.2,0-1.46.36-2.83,1.09-4.09.72-1.26,1.71-2.25,2.97-2.96,1.26-.71,2.69-1.07,4.28-1.07,1.29,0,2.5.24,3.64.71,1.14.47,2.24,1.23,3.33,2.28Z"/>
        <path class="st0" d="M351.78,136.57h1.52v15.46h-1.52v-15.46Z"/>
        <path class="st0" d="M362.61,136.57h8.71v1.51h-7.19v4.85h7.13v1.51h-7.13v6.08h7.13v1.51h-8.65v-15.46Z"/>
        <path class="st0" d="M378.19,149.15l1.29-.79c.91,1.7,1.96,2.55,3.15,2.55.51,0,.99-.12,1.44-.36.45-.24.79-.57,1.02-.97.23-.41.35-.84.35-1.29,0-.52-.17-1.03-.52-1.52-.48-.69-1.34-1.51-2.6-2.48-1.27-.97-2.06-1.68-2.37-2.11-.54-.73-.81-1.52-.81-2.37,0-.67.16-1.29.47-1.84.32-.55.76-.99,1.34-1.31.57-.32,1.2-.48,1.87-.48.72,0,1.39.18,2.01.54.62.36,1.28,1.03,1.98,1.99l-1.24.96c-.57-.77-1.06-1.28-1.46-1.52-.4-.25-.84-.37-1.32-.37-.61,0-1.11.19-1.5.57-.39.38-.58.85-.58,1.4,0,.34.07.66.21.98.14.32.39.66.75,1.03.2.2.85.71,1.96,1.54,1.32.99,2.22,1.87,2.71,2.64.49.77.73,1.54.73,2.32,0,1.12-.42,2.09-1.25,2.92-.84.83-1.85,1.24-3.05,1.24-.92,0-1.76-.25-2.51-.75-.75-.5-1.44-1.34-2.08-2.52Z"/>
      </g>
      <path class="st1" d="M387.06,91.69c-.45-15.97-13.18-28.77-28.83-28.77s-28.85,13.27-28.85,29.64,12.92,29.64,28.85,29.64c9.01,0,17.05-4.24,22.34-10.88v9.43h6.51l-.02-29.07ZM358.23,115.52c-12.26,0-22.19-10.21-22.19-22.8s9.94-22.8,22.19-22.8,22.19,10.21,22.19,22.8-9.94,22.8-22.19,22.8Z"/>
      <path class="st1" d="M275.26,73.6v-9.23h-6.69v56.38h6.69v-28.79c.39-12.25,10.16-22.05,22.18-22.05v-7c-8.91,0-16.88,4.16-22.18,10.68Z"/>
      <path class="st1" d="M132.44,95.23v46.14h6.51v-30.06c5.29,6.64,13.33,10.88,22.34,10.88,15.93,0,28.85-13.27,28.85-29.64s-12.92-29.64-28.85-29.64-28.85,13.27-28.85,29.64v2.67ZM161.29,115.52c-12.26,0-22.19-10.21-22.19-22.8s9.94-22.8,22.19-22.8,22.19,10.21,22.19,22.8-9.94,22.8-22.19,22.8Z"/>
    </g>
  </g>
</svg>